name rise34.3697peak60.0498fall86.3158.mot
datacolumns 19
datarows 14
range 14.58660900000000 14.60828000000000
endheader
time	ground_force1_vx	ground_force1_vy	ground_force1_vz	ground_force1_px	ground_force1_py	ground_force1_pz	ground_force2_vx	ground_force2_vy	ground_force2_vz	ground_force2_px	ground_force2_py	ground_force2_pz	ground_torque1_x	ground_torque1_y	ground_torque1_z	ground_torque2_x	ground_torque2_y	ground_torque2_z	
14.58660900000000	-10.63239500000000	41.73381200000000	-8.75065000000000	0.40158700000000	0.00000000000000	0.10093500000000	-39.73949700000000	780.02742100000000	-55.98320500000000	0.22252600000000	0.00000000000000	-0.08269200000000	0.00000000000000	-6.72297000000000	0.00000000000000	0.00000000000000	-29.22062000000000	0.00000000000000	
14.58828200000000	-11.76517600000000	48.66885200000000	-9.80853600000000	0.40233700000000	0.00000000000000	0.10193700000000	-39.95200800000000	777.03479100000004	-55.67994700000000	0.22172400000000	0.00000000000000	-0.08263900000000	0.00000000000000	-7.55346500000000	0.00000000000000	0.00000000000000	-29.02942700000000	0.00000000000000	
14.58994500000000	-12.72655900000000	55.62937700000000	-10.75844300000000	0.40318200000000	0.00000000000000	0.10284800000000	-40.17396600000000	773.93469400000004	-55.35769100000000	0.22091800000000	0.00000000000000	-0.08258200000000	0.00000000000000	-8.30970800000000	0.00000000000000	0.00000000000000	-28.83471900000000	0.00000000000000	
14.59161100000000	-13.48848500000000	62.52188100000000	-11.57717100000000	0.40410700000000	0.00000000000000	0.10368200000000	-40.40586900000000	770.72726100000000	-55.01636300000000	0.22011000000000	0.00000000000000	-0.08252200000000	0.00000000000000	-8.97475400000000	0.00000000000000	0.00000000000000	-28.63666000000000	0.00000000000000	
14.59328200000000	-14.03392600000000	69.27771199999999	-12.24956600000000	0.40509900000000	0.00000000000000	0.10444900000000	-40.64816700000000	767.41258400000004	-54.65590400000000	0.21930100000000	0.00000000000000	-0.08245800000000	0.00000000000000	-9.53751500000000	0.00000000000000	0.00000000000000	-28.43541000000000	0.00000000000000	
14.59494100000000	-14.35680000000000	75.85497599999999	-12.76859000000000	0.40615000000000	0.00000000000000	0.10515700000000	-40.90126000000000	763.99070500000005	-54.27627000000000	0.21848900000000	0.00000000000000	-0.08239000000000	0.00000000000000	-9.99282600000000	0.00000000000000	0.00000000000000	-28.23112500000000	0.00000000000000	
14.59661200000000	-14.46100100000000	82.23792600000000	-13.13472000000000	0.40725100000000	0.00000000000000	0.10581300000000	-41.16549200000000	760.46161800000004	-53.87743200000000	0.21767600000000	0.00000000000000	-0.08231900000000	0.00000000000000	-10.34101900000000	0.00000000000000	0.00000000000000	-28.02395100000000	0.00000000000000	
14.59828100000000	-14.35877700000000	88.43429500000001	-13.35482100000000	0.40839600000000	0.00000000000000	0.10642400000000	-41.44114700000000	756.82526099999995	-53.45937900000000	0.21686300000000	0.00000000000000	-0.08224400000000	0.00000000000000	-10.58711600000000	0.00000000000000	0.00000000000000	-27.81403200000000	0.00000000000000	
14.59994800000000	-14.06870600000000	94.47115800000000	-13.44070700000000	0.40957900000000	0.00000000000000	0.10699300000000	-41.72844600000000	753.08151799999996	-53.02211800000000	0.21604900000000	0.00000000000000	-0.08216500000000	0.00000000000000	-10.73977500000000	0.00000000000000	0.00000000000000	-27.60150300000000	0.00000000000000	
14.60161200000000	-13.61350000000000	100.38991300000001	-13.40753000000000	0.41079500000000	0.00000000000000	0.10752700000000	-42.02754200000000	749.23021100000005	-52.56567500000000	0.21523500000000	0.00000000000000	-0.08208200000000	0.00000000000000	-10.81011800000000	0.00000000000000	0.00000000000000	-27.38649000000000	0.00000000000000	
14.60327700000000	-13.01785000000000	106.24095800000001	-13.27219200000000	0.41204000000000	0.00000000000000	0.10802800000000	-42.33852000000000	745.27110100000004	-52.09009500000000	0.21442200000000	0.00000000000000	-0.08199500000000	0.00000000000000	-10.81055900000000	0.00000000000000	0.00000000000000	-27.16911100000000	0.00000000000000	
14.60494500000000	-12.30648200000000	112.07854399999999	-13.05187200000000	0.41331100000000	0.00000000000000	0.10849900000000	-42.66138800000000	741.20389000000000	-51.59544300000000	0.21361000000000	0.00000000000000	-0.08190400000000	0.00000000000000	-10.75372100000000	0.00000000000000	0.00000000000000	-26.94947600000000	0.00000000000000	
14.60660800000000	-11.50254300000000	117.95618200000000	-12.76280200000000	0.41460400000000	0.00000000000000	0.10894400000000	-42.99607900000000	737.02821600000004	-51.08180700000000	0.21280000000000	0.00000000000000	-0.08180800000000	0.00000000000000	-10.65151700000000	0.00000000000000	0.00000000000000	-26.72768600000000	0.00000000000000	
14.60828000000000	-10.62638000000000	123.92287899999999	-12.41931300000000	0.41591700000000	0.00000000000000	0.10936400000000	-43.34244600000000	732.74365299999999	-50.54929500000000	0.21199300000000	0.00000000000000	-0.08170800000000	0.00000000000000	-10.51444800000000	0.00000000000000	0.00000000000000	-26.50383000000000	0.00000000000000	
